<svg width="100" height="100" viewBox="0 0 100 100" fill="none" xmlns="http://www.w3.org/2000/svg">
<rect width="100" height="100" rx="12" fill="url(#paint0_linear_201_2)"/>
<g filter="url(#filter0_d_201_2)">
<path d="M18.932 62.252C18.308 62.252 17.816 62.084 17.456 61.748C17.12 61.412 16.952 60.92 16.952 60.272V38.636C16.952 37.988 17.12 37.496 17.456 37.16C17.816 36.8 18.32 36.62 18.968 36.62H31.784C32.312 36.62 32.696 36.752 32.936 37.016C33.2 37.256 33.332 37.616 33.332 38.096C33.332 38.6 33.2 38.984 32.936 39.248C32.696 39.512 32.312 39.644 31.784 39.644H20.696V47.744H31.064C31.544 47.744 31.916 47.876 32.18 48.14C32.468 48.38 32.612 48.74 32.612 49.22C32.612 49.724 32.468 50.108 32.18 50.372C31.916 50.636 31.544 50.768 31.064 50.768H20.696V60.272C20.696 61.592 20.108 62.252 18.932 62.252ZM38.9016 62C38.2536 62 37.7496 61.832 37.3896 61.496C37.0536 61.136 36.8856 60.632 36.8856 59.984V38.636C36.8856 37.988 37.0536 37.496 37.3896 37.16C37.7496 36.8 38.2536 36.62 38.9016 36.62H45.8496C50.0256 36.62 53.2416 37.712 55.4976 39.896C57.7776 42.056 58.9176 45.188 58.9176 49.292C58.9176 51.332 58.6296 53.144 58.0536 54.728C57.4776 56.312 56.6256 57.644 55.4976 58.724C54.3936 59.78 53.0376 60.596 51.4296 61.172C49.8216 61.724 47.9616 62 45.8496 62H38.9016ZM40.6296 58.868H45.6336C47.2176 58.868 48.5856 58.676 49.7376 58.292C50.9136 57.884 51.8976 57.284 52.6896 56.492C53.4816 55.7 54.0696 54.704 54.4536 53.504C54.8376 52.304 55.0296 50.9 55.0296 49.292C55.0296 46.1 54.2376 43.712 52.6536 42.128C51.0936 40.544 48.7536 39.752 45.6336 39.752H40.6296V58.868ZM65.9368 62C65.2888 62 64.7848 61.832 64.4248 61.496C64.0888 61.136 63.9208 60.632 63.9208 59.984V38.636C63.9208 37.988 64.0888 37.496 64.4248 37.16C64.7848 36.8 65.2888 36.62 65.9368 36.62H74.5048C76.2568 36.62 77.7448 36.884 78.9688 37.412C80.2168 37.94 81.1648 38.696 81.8128 39.68C82.4848 40.664 82.8208 41.852 82.8208 43.244C82.8208 44.78 82.3648 46.076 81.4528 47.132C80.5408 48.188 79.3048 48.896 77.7448 49.256V48.716C79.5208 48.956 80.9128 49.628 81.9208 50.732C82.9288 51.812 83.4328 53.228 83.4328 54.98C83.4328 57.236 82.6888 58.976 81.2008 60.2C79.7128 61.4 77.6248 62 74.9368 62H65.9368ZM67.5208 59.12H74.5048C76.3048 59.12 77.6368 58.772 78.5008 58.076C79.3648 57.356 79.7968 56.276 79.7968 54.836C79.7968 53.396 79.3648 52.328 78.5008 51.632C77.6368 50.936 76.3048 50.588 74.5048 50.588H67.5208V59.12ZM67.5208 47.708H73.9288C75.6568 47.708 76.9648 47.36 77.8528 46.664C78.7408 45.968 79.1848 44.948 79.1848 43.604C79.1848 42.26 78.7408 41.24 77.8528 40.544C76.9648 39.848 75.6568 39.5 73.9288 39.5H67.5208V47.708Z" fill="white"/>
</g>
<defs>
<filter id="filter0_d_201_2" x="13.952" y="35.62" width="76.4808" height="35.632" filterUnits="userSpaceOnUse" color-interpolation-filters="sRGB">
<feFlood flood-opacity="0" result="BackgroundImageFix"/>
<feColorMatrix in="SourceAlpha" type="matrix" values="0 0 0 0 0 0 0 0 0 0 0 0 0 0 0 0 0 0 127 0" result="hardAlpha"/>
<feOffset dx="2" dy="4"/>
<feGaussianBlur stdDeviation="2.5"/>
<feComposite in2="hardAlpha" operator="out"/>
<feColorMatrix type="matrix" values="0 0 0 0 0 0 0 0 0 0 0 0 0 0 0 0 0 0 0.37 0"/>
<feBlend mode="normal" in2="BackgroundImageFix" result="effect1_dropShadow_201_2"/>
<feBlend mode="normal" in="SourceGraphic" in2="effect1_dropShadow_201_2" result="shape"/>
</filter>
<linearGradient id="paint0_linear_201_2" x1="50" y1="0" x2="50" y2="100" gradientUnits="userSpaceOnUse">
<stop stop-color="#10BFF7"/>
<stop offset="1" stop-color="#C8F710" stop-opacity="0.91"/>
</linearGradient>
</defs>
</svg>
